<svg width="160" height="22" viewBox="0 0 160 22" fill="none" xmlns="http://www.w3.org/2000/svg">
<path class="letter t" d="M7.52113 7.98393V5.22393H5.47413V1.93493H1.79413V5.22393H0.161133V7.98393H1.79413V13.1359C1.79413 15.7809 2.55313 17.2069 5.24413 17.2069C6.27913 17.2069 6.85413 17.0919 7.52113 16.9539V14.1939C5.95713 14.1939 5.47413 14.1939 5.47413 12.8599V7.98393H7.52113Z" fill="white"></path>
<path class="letter h" d="M16.2516 4.85593C14.3656 4.85593 13.2156 5.84493 12.5946 6.92593H12.5486V0.554932H8.86861V16.9999H12.5486V10.1919C12.5486 8.55893 13.5146 7.84593 14.6876 7.84593C16.0216 7.84593 16.5966 8.44393 16.5966 10.2149V16.9999H20.2766V9.04193C20.2766 6.35093 18.7356 4.85593 16.2516 4.85593Z" fill="white"></path>
<path class="letter r" d="M28.5868 5.01693C27.2988 5.01693 26.2868 5.84493 25.7118 7.15593H25.6658V5.22393H21.9858V16.9999H25.6658V11.5259C25.6658 9.01893 27.6668 7.98393 29.5528 8.32893H29.5988V5.10893C29.1848 5.01693 28.9088 5.01693 28.5868 5.01693Z" fill="white"></path>
<path class="letter e" d="M36.2469 14.6079C34.9359 14.6079 33.7169 13.7339 33.7169 12.0779H42.1809C42.1809 7.79993 40.1339 4.85593 36.1089 4.85593C32.3599 4.85593 30.0369 7.52393 30.0369 11.1119C30.0369 14.7919 32.4059 17.3679 36.3159 17.3679C39.5129 17.3679 41.3529 15.8039 41.9969 13.4349H38.3399C38.1099 14.0099 37.5119 14.6079 36.2469 14.6079ZM36.1089 7.38593C37.5119 7.38593 38.5009 8.21393 38.5009 9.84693H33.7169C33.7169 8.21393 34.7059 7.38593 36.1089 7.38593Z" fill="white"></path>
<path class="letter e" d="M49.117 14.6079C47.806 14.6079 46.587 13.7339 46.587 12.0779H55.051C55.051 7.79993 53.004 4.85593 48.979 4.85593C45.23 4.85593 42.907 7.52393 42.907 11.1119C42.907 14.7919 45.276 17.3679 49.186 17.3679C52.383 17.3679 54.223 15.8039 54.867 13.4349H51.21C50.98 14.0099 50.382 14.6079 49.117 14.6079ZM48.979 7.38593C50.382 7.38593 51.371 8.21393 51.371 9.84693H46.587C46.587 8.21393 47.576 7.38593 48.979 7.38593Z" fill="white"></path>
<path class="letter dot" d="M57.9878 17.2069C59.0688 17.2069 59.9428 16.4479 59.9428 15.2519C59.9428 14.0789 59.0688 13.2969 57.9878 13.2969C56.8838 13.2969 56.0328 14.0789 56.0328 15.2519C56.0328 16.4479 56.8838 17.2069 57.9878 17.2069Z" fill="white"></path>
<path class="letter j" d="M63.718 3.82093C64.753 3.82093 65.558 3.26893 65.558 2.18793C65.558 1.12993 64.753 0.554932 63.718 0.554932C62.683 0.554932 61.878 1.12993 61.878 2.18793C61.878 3.26893 62.683 3.82093 63.718 3.82093ZM61.878 5.22393V16.7239C61.878 18.0579 61.395 18.0579 59.831 18.0579V20.8179C60.498 20.9559 61.073 21.0709 62.108 21.0709C64.799 21.0709 65.558 19.6449 65.558 16.9999V5.22393H61.878Z" fill="white"></path>
<path class="letter s" d="M73.1069 9.57093C71.2899 9.17993 70.5539 9.15693 70.5539 8.32893C70.5539 7.75393 71.0829 7.38593 72.1179 7.38593C73.3139 7.38593 73.8199 7.89193 73.9349 8.83493H77.3849C77.2699 6.76493 75.7979 4.85593 72.0259 4.85593C68.7139 4.85593 66.8739 6.48893 66.8739 8.62793C66.8739 11.0889 69.0819 11.8249 71.0829 12.2619C72.9459 12.6759 74.0499 12.8139 74.0499 13.8259C74.0499 14.4929 73.4749 14.8379 72.4399 14.8379C70.9909 14.8379 70.2089 14.2629 70.0939 13.0899H66.6439C66.7589 15.4819 68.3689 17.3679 72.5779 17.3679C75.8439 17.3679 77.7299 16.0109 77.7299 13.5269C77.7299 10.8589 75.4299 10.0769 73.1069 9.57093Z" fill="white"></path>

</svg>